<?xml version="1.0" encoding="UTF-8"?>
<!DOCTYPE svg PUBLIC "-//W3C//DTD SVG 1.1//EN" "http://www.w3.org/Graphics/SVG/1.1/DTD/svg11.dtd">
<!-- Creator: CorelDRAW 2020 (64-Bit) -->
<svg xmlns="http://www.w3.org/2000/svg" xml:space="preserve" width="133.149mm" height="139.219mm" version="1.1" style="shape-rendering:geometricPrecision; text-rendering:geometricPrecision; image-rendering:optimizeQuality; fill-rule:evenodd; clip-rule:evenodd" viewBox="0 0 14130.79 14775.02" xmlns:xlink="http://www.w3.org/1999/xlink" xmlns:xodm="http://www.corel.com/coreldraw/odm/2003">
 <defs>
  <style type="text/css">
   <![CDATA[
    .fil3 {fill:#FEFEFE}
    .fil5 {fill:#D9DADA}
    .fil6 {fill:#5B5B5B}
    .fil7 {fill:#FFED00}
    .fil2 {fill:#393185}
    .fil1 {fill:#FEFEFE;fill-rule:nonzero}
    .fil4 {fill:#EF7F1A;fill-rule:nonzero}
    .fil0 {fill:#E31E24;fill-rule:nonzero}
    .fil8 {fill:#3C3034;fill-rule:nonzero}
   ]]>
  </style>
 </defs>
 <g id="Layer_x0020_1">
  <metadata id="CorelCorpID_0Corel-Layer"/>
  <path class="fil0" d="M3182.92 1024.71c-148.7,37.99 -290.6,83.08 -424.06,142.08 -129.15,57.11 -253.7,127.91 -373.54,219.08l-2.14 0c-117.38,89.3 -240,207 -362.14,342.29 -135.06,149.6 -263.13,316.39 -378.51,487.19 -109.46,162.04 -206.48,326.74 -292.08,498.36 -87.95,176.35 -162.16,353.82 -223.55,536.33 -65.61,195.07 -120.55,404.9 -158.85,627.64 -34.8,202.46 -54.95,406.66 -55.73,608.74 -0.82,216.59 20.02,446.49 61.85,682.72 40.99,231.34 101.03,458.56 179.46,674.65 76.5,210.78 173.22,416.84 373,708.85 215.82,315.44 549.93,728.68 1095.1,1339.97 410.62,460.44 924.22,1015.12 1462.83,1585.82l5090.02 -4838.46c-748.57,-791.94 -1472.54,-1538.14 -2020.61,-2083.03 -649.8,-646.01 -1046.6,-1005.02 -1322.8,-1211.84 -227.27,-170.17 -360.44,-223.76 -505.5,-266.7 -168.38,-49.86 -356.76,-89.61 -551.31,-118.48 -209.69,-31.12 -413.4,-48.73 -596.58,-52.1 -177.45,-3.27 -351.12,6.59 -523.29,27.42 -161.22,19.51 -317.45,50.08 -471.58,89.47z"/>
  <path class="fil1" d="M912.72 4447.22c-0.21,13.09 -0.34,26.14 -0.39,39.2 -0.82,216.59 20.02,446.49 61.85,682.72 25.45,143.62 58.24,285.66 98.22,424.44l4499.65 -4266.13 236.53 0.88c-213.64,-156.98 -342.72,-208.45 -482.9,-249.94 -168.38,-49.86 -356.76,-89.61 -551.31,-118.48 -125.31,-18.59 -248.49,-32.36 -366.42,-41.16l-3336.07 3297.63 -159.15 230.83zm596.77 2080.2c5.62,8.34 11.35,16.75 17.15,25.23 123.04,179.84 284.57,391.49 501.7,653.48l4958.99 -4648.59 93.57 -73.07c-296.83,-293.83 -538.74,-525.23 -739.54,-708.27l-4757.18 4629.94 -74.69 121.27zm1140.27 1396.58c189,211.5 398.98,442.17 622.58,684.61l5176.47 -4730.21c-257.06,-267.47 -504.54,-522.46 -735.44,-757.74l-4969.39 4719.09 -94.22 84.26z"/>
  <polygon class="fil2" points="2137.95,1813.43 425.69,3426.29 398.26,5250.05 1580.03,6412.87 4162.46,3896.84 "/>
  <polygon class="fil3" points="3481.03,4248.85 3323.09,4139.59 3170.83,4256.63 3225.94,4072.65 3067.58,3964.01 3259.58,3959.56 3313.97,3775.39 3377.53,3956.61 3569.5,3951.43 3416.78,4067.87 "/>
  <polygon class="fil3" points="2763.02,4085.69 2605.08,3976.43 2452.82,4093.47 2507.93,3909.49 2349.57,3800.85 2541.57,3796.4 2595.96,3612.23 2659.52,3793.45 2851.49,3788.27 2698.77,3904.71 "/>
  <polygon class="fil3" points="2650.71,3411.77 2492.77,3302.51 2340.51,3419.55 2395.62,3235.58 2237.25,3126.94 2429.25,3122.49 2483.64,2938.32 2547.2,3119.54 2739.18,3114.36 2586.46,3230.79 "/>
  <polygon class="fil3" points="1948.71,3439.86 1790.77,3330.6 1638.51,3447.63 1693.62,3263.66 1535.26,3155.02 1727.26,3150.57 1781.65,2966.4 1845.21,3147.62 2037.18,3142.44 1884.46,3258.87 "/>
  <polygon class="fil3" points="2055.41,2743.47 1897.47,2634.22 1745.21,2751.25 1800.32,2567.28 1641.96,2458.64 1833.96,2454.19 1888.35,2270.02 1951.91,2451.24 2143.88,2446.06 1991.16,2562.49 "/>
  <polygon class="fil3" points="2694.79,5023.85 2536.85,4914.59 2384.59,5031.63 2439.7,4847.65 2281.34,4739.01 2473.34,4734.56 2527.73,4550.39 2591.29,4731.61 2783.26,4726.44 2630.54,4842.87 "/>
  <polygon class="fil3" points="1976.78,4860.69 1818.84,4751.43 1666.58,4868.47 1721.69,4684.49 1563.33,4575.85 1755.33,4571.4 1809.72,4387.23 1873.28,4568.45 2065.25,4563.27 1912.53,4679.71 "/>
  <polygon class="fil3" points="1864.47,4186.77 1706.53,4077.52 1554.27,4194.55 1609.38,4010.58 1451.01,3901.94 1643.01,3897.49 1697.4,3713.32 1760.96,3894.54 1952.94,3889.36 1800.22,4005.79 "/>
  <polygon class="fil3" points="1162.47,4214.86 1004.53,4105.6 852.27,4222.63 907.38,4038.66 749.02,3930.02 941.02,3925.57 995.41,3741.4 1058.97,3922.62 1250.94,3917.44 1098.22,4033.88 "/>
  <polygon class="fil3" points="1269.18,3518.47 1111.24,3409.22 958.97,3526.25 1014.09,3342.28 855.72,3233.64 1047.72,3229.19 1102.11,3045.02 1165.67,3226.24 1357.64,3221.06 1204.93,3337.49 "/>
  <polygon class="fil3" points="1992.8,5714.61 1834.86,5605.36 1682.6,5722.39 1737.71,5538.42 1579.35,5429.78 1771.34,5425.33 1825.73,5241.16 1889.29,5422.38 2081.27,5417.2 1928.55,5533.63 "/>
  <polygon class="fil3" points="1274.79,5551.45 1116.85,5442.19 964.59,5559.23 1019.7,5375.26 861.34,5266.62 1053.33,5262.17 1107.72,5078 1171.28,5259.22 1363.26,5254.04 1210.54,5370.47 "/>
  <polygon class="fil3" points="1162.47,4877.54 1004.53,4768.28 852.27,4885.32 907.38,4701.35 749.02,4592.7 941.02,4588.26 995.41,4404.08 1058.97,4585.31 1250.94,4580.13 1098.22,4696.56 "/>
  <polygon class="fil3" points="460.48,4905.62 302.54,4796.36 150.28,4913.4 205.39,4729.43 47.03,4620.78 239.02,4616.34 293.41,4432.16 356.97,4613.39 548.95,4608.21 396.23,4724.64 "/>
  <polygon class="fil3" points="567.18,4209.24 409.24,4099.98 256.98,4217.02 312.09,4033.05 153.73,3924.4 345.72,3919.96 400.11,3735.78 463.67,3917.01 655.65,3911.83 502.93,4028.26 "/>
  <path class="fil4" d="M4769.68 10105.07c713.06,744.39 1411.78,1459.7 1921.19,1970.01 530.53,531.48 853.68,838.6 1081.38,1031.51 197.65,167.46 310.76,236.26 437.26,301.76 150.48,77.93 320.12,153.42 504.35,216.54 157.1,53.84 323.31,98.42 495.09,127.42 192.22,32.44 391.52,47 592.5,43.46 200.03,-3.52 408.89,-25.51 621.33,-66.14 218.24,-41.73 430.93,-101.5 631.55,-181.3 186.29,-74.1 368.87,-168.09 543.53,-284.01 172.04,-114.17 334.3,-249.29 485.1,-397.98 170.8,-168.39 325.02,-350.48 461.09,-537.16 128.41,-176.14 242.73,-359.54 337.48,-556.41 89.42,-185.78 158.93,-381.71 202.87,-592.83 42.76,-205.4 62.87,-425.89 66.52,-647.28 4.44,-268.15 -14.35,-538.3 -46.16,-787.16 -25.01,-195.77 -59.77,-375.66 -206.01,-646.79 -170.9,-316.86 -482.25,-751.14 -1060.17,-1435.7 -534.1,-632.68 -1285.44,-1465.79 -2069.88,-2309.96l-4999.05 4752z"/>
  <g id="_2768545254048">
   <path class="fil5" d="M7113.64 3375.72c-24.37,-101.48 -56.19,-187.44 -117.04,-270.33 -60.85,-82.9 -154.76,-161.17 -267.38,-227.08 -112.62,-65.93 -246.3,-122.69 -404.72,-161.16 -158.41,-38.46 -341.54,-58.6 -557.64,-63.19 -216.09,-4.57 -465.15,6.41 -709.64,45.78 -244.48,39.37 -484.38,107.14 -709.63,206.94 -225.26,99.8 -435.86,231.67 -618.99,379.08 -183.12,147.42 -338.79,310.41 -496.29,547.57 -157.48,237.15 -316.82,548.5 -479.81,971.51 -674.55,1750.81 -1020.86,2081.6 -110.83,3741.93 302.94,552.72 1103.46,1128.17 1527.35,723.54 1047,-999.42 3556,-839.62 2226.13,-2432.74 -146.41,-175.41 -887.91,-2145.24 838.57,-2080.79 86.07,3.21 147.41,12.36 211.97,36.62 64.56,24.26 132.32,63.63 189.09,114.9 56.77,51.28 102.55,114.46 130.02,165.74 27.47,51.27 36.64,90.65 47.16,109.89 10.53,19.23 22.42,18.31 43.03,2.28 20.6,-16.03 49.9,-47.16 86.98,-118.12 37.08,-70.97 81.95,-181.75 108.05,-303.08 26.11,-121.32 33.42,-253.18 10.07,-386.4 -23.35,-133.23 -77.38,-267.84 -137.81,-375.88 -60.43,-108.05 -127.28,-189.54 -194.12,-258.21 -66.84,-68.69 -133.68,-124.53 -199.15,-170.77 -65.47,-46.24 -129.57,-82.89 -186.8,-111.72 -57.23,-28.83 -107.59,-49.9 -144.56,-62.99 -36.95,-13.09 -60.5,-18.2 -84.05,-23.32z"/>
   <path class="fil6" d="M4943.44 3651.52c14.65,-29.3 61.34,-81.5 125.9,-114 64.56,-32.51 146.97,-45.33 245.86,-45.33 98.89,0 214.26,12.82 308.58,24.27 94.31,11.44 167.57,21.51 224.33,23.8 56.77,2.29 97.06,-3.21 132.77,-12.36 35.71,-9.16 66.85,-21.98 83.33,-20.14 16.48,1.84 18.31,18.32 11.9,55.86 -6.41,37.54 -21.06,96.14 -48.08,174.89 -27.01,78.75 -66.37,177.64 -111.71,245.4 -45.32,67.75 -96.59,104.39 -139.63,130.02 -43.03,25.64 -77.83,40.3 -136.88,47.16 -59.06,6.87 -142.39,5.94 -236.25,-25.64 -93.85,-31.59 -198.24,-93.86 -269.19,-164.82 -70.97,-70.97 -108.51,-150.63 -131.4,-198.24 -22.89,-47.62 -31.14,-63.19 -43.96,-74.17 -12.82,-10.99 -30.21,-17.39 -15.56,-46.7z"/>
   <path class="fil7" d="M7813.65 5184.76c-10.53,-19.23 -19.69,-58.59 -47.15,-109.87 -27.47,-51.28 -73.26,-114.47 -130.03,-165.74 -56.77,-51.28 -124.53,-90.65 -189.09,-114.92 -64.55,-24.26 -125.9,-33.42 -211.97,-36.62 -86.07,-3.21 -196.87,-0.46 -290.14,11.64 -93.27,12.11 -169.01,33.57 -237.62,57.2 -68.61,23.63 -130.08,49.45 -191.55,75.26 -14.84,-42.75 -29.67,-85.5 -50.8,-113.26 -21.12,-27.75 -48.53,-40.51 -104.82,-48.72 -56.28,-8.21 -141.44,-11.88 -237.12,-13.71 -95.69,-1.83 -201.91,-1.83 -289.35,-10.53 -87.45,-8.7 -156.13,-26.1 -217.47,-32.51 -61.35,-6.41 -115.37,-1.84 -126.37,-16.94 -10.98,-15.11 21.06,-49.9 60.44,-89.73 39.37,-39.83 86.06,-84.7 128.18,-121.78 42.12,-37.08 79.67,-66.38 130.03,-93.39 50.36,-27.02 113.55,-51.75 185.43,-69.14 71.88,-17.39 152.45,-27.47 228.91,-43.95 76.47,-16.48 148.8,-39.37 219.76,-69.6 70.97,-30.21 140.56,-67.75 184.05,-109.87 43.49,-42.12 60.9,-88.82 65.01,-130.02 4.12,-41.21 -5.04,-76.92 -21.52,-124.08 -16.48,-47.15 -40.29,-105.76 -60.89,-153.37 -20.6,-47.61 -38,-84.23 -46.25,-124.53 -8.24,-40.29 -7.31,-84.23 3.22,-122.68 10.53,-38.46 30.67,-71.43 59.97,-95.7 29.3,-24.26 67.75,-39.83 105.3,-49.9 37.55,-10.07 74.17,-14.65 113.08,-13.73 38.92,0.91 80.13,7.32 115.37,18.76 35.26,11.44 64.56,27.92 89.41,45.97 24.84,18.04 45.24,37.65 65.64,57.26 23.55,5.12 47.11,10.23 84.06,23.33 36.96,13.09 87.32,34.14 144.55,62.99 57.23,28.83 121.34,65.47 186.8,111.71 65.47,46.24 132.32,102.1 199.16,170.77 66.84,68.68 133.69,150.17 194.12,258.22 60.43,108.05 114.46,242.64 137.81,375.87 23.35,133.22 16.03,265.09 -10.07,386.41 -26.1,121.32 -70.97,232.11 -108.06,303.07 -37.08,70.97 -66.38,102.11 -86.98,118.13 -20.6,16.03 -32.51,16.94 -43.03,-2.29z"/>
  </g>
  <path class="fil8" d="M3248.16 1170.86c-143.49,36.67 -280.41,80.17 -409.19,137.11 -124.62,55.1 -244.81,123.42 -360.44,211.4l-2.07 0c-113.26,86.17 -231.58,199.74 -349.44,330.29 -130.33,144.36 -253.91,305.3 -365.24,470.1 -105.62,156.36 -199.23,315.29 -281.83,480.89 -84.86,170.17 -156.48,341.41 -215.71,517.52 -63.31,188.23 -116.33,390.7 -153.28,605.63 -33.58,195.36 -53.03,392.41 -53.78,587.4 -0.79,208.99 19.32,430.84 59.69,658.78 39.54,223.23 97.49,442.48 173.17,650.99 73.81,203.39 167.14,402.23 359.91,684 208.26,304.39 530.65,703.13 1056.71,1292.99 396.22,444.29 891.82,979.52 1411.54,1530.22l4911.54 -4668.81c-722.33,-764.18 -1420.91,-1484.21 -1949.76,-2009.99 -627.02,-623.36 -1009.9,-969.79 -1276.42,-1169.35 -219.3,-164.2 -347.8,-215.92 -487.76,-257.35 -162.48,-48.12 -344.26,-86.47 -531.99,-114.33 -202.33,-30.02 -398.9,-47.03 -575.66,-50.27 -171.23,-3.15 -338.81,6.37 -504.94,26.47 -155.56,18.82 -306.32,48.32 -455.05,86.32zm-836.18 -832.97c190.83,-84.37 381.54,-145.72 575,-195.16 188.22,-48.1 383.81,-86.01 591.87,-111.18 197.5,-23.89 410.89,-34.96 645.87,-30.63 237.11,4.36 480.68,24.18 712.48,58.57 230.37,34.19 461.22,83.57 677.09,147.49 245.64,72.73 467.25,160.53 823.55,427.32 309.11,231.45 727.45,607.65 1388.35,1264.7 693.68,689.65 1660.59,1692.87 2589.6,2689.82 821.06,881.1 1617.18,1761.91 2177.61,2425.78 619.68,734.02 963.73,1218.59 1164.79,1591.37 225.25,417.64 279.17,697.93 318.25,1003.71 37,289.51 58.83,605.51 53.59,921.73 -4.7,284.39 -30.69,568.42 -86.02,834.21 -61.69,296.36 -158.25,569.29 -282,826.4 -118.52,246.24 -264.7,480.02 -430.7,707.72 -170.32,233.66 -359.41,457.7 -564.42,659.81 -195.53,192.78 -407.34,368.93 -633.61,519.09 -228.03,151.34 -473,276.67 -728.26,378.2 -268.34,106.74 -540.66,184.36 -810.47,235.95 -260.01,49.73 -526.44,76.83 -792.17,81.51 -267.42,4.72 -527.16,-13.73 -772.16,-55.09 -231.08,-39.01 -449.28,-97.14 -651.7,-166.49 -234.25,-80.26 -449.44,-175.99 -640.06,-274.7 -190.31,-98.56 -356.42,-198.62 -628.1,-428.8 -242.17,-205.18 -579.34,-525.29 -1127.57,-1074.49 -589.16,-590.2 -1424.51,-1447.25 -2234.96,-2298.55 -685.27,-719.83 -1349.5,-1431.3 -1832.99,-1973.45 -554.07,-621.27 -902.8,-1054.67 -1139.61,-1400.77 -252.27,-368.72 -378.01,-638.87 -480.13,-920.3 -99.46,-274.03 -174.01,-553.16 -222.92,-829.24 -48.89,-276.07 -73.2,-559.34 -72.12,-841.19 1.03,-270.2 24.97,-525.72 66.21,-765.65 45.41,-264.09 112.92,-519.9 194.73,-763.17 79.27,-235.7 168.69,-452 269.6,-654.34 103.19,-206.88 220.21,-405.53 352.32,-601.11 136.86,-202.62 291.11,-403.04 456.45,-586.17 152.46,-168.87 319.46,-326.46 497.37,-461.95l-0.76 -1c189.47,-144.15 381.02,-253.7 576.01,-339.92zm2435.78 9757.3c699.79,730.52 1385.48,1432.51 1885.41,1933.31 520.65,521.58 837.79,822.98 1061.24,1012.3 193.97,164.34 304.97,231.86 429.11,296.14 147.68,76.48 314.16,150.56 494.96,212.51 154.17,52.83 317.29,96.59 485.86,125.04 188.64,31.84 384.23,46.13 581.47,42.65 196.31,-3.46 401.27,-25.04 609.76,-64.91 214.17,-40.95 422.9,-99.61 619.78,-177.92 182.82,-72.72 362,-164.95 533.41,-278.71 168.84,-112.05 328.07,-244.66 476.07,-390.57 167.62,-165.25 318.96,-343.95 452.5,-527.15 126.03,-172.86 238.2,-352.84 331.19,-546.04 87.76,-182.32 155.97,-374.6 199.1,-581.79 41.96,-201.57 61.69,-417.95 65.28,-635.22 4.35,-263.16 -14.08,-528.27 -45.3,-772.5 -24.55,-192.12 -58.66,-368.66 -202.16,-634.74 -167.71,-310.94 -473.27,-737.14 -1040.43,-1408.96 -524.15,-620.89 -1261.49,-1438.48 -2031.31,-2266.93l-4905.93 4663.48z"/>
 </g>
</svg>